<svg width="94" height="94" viewBox="0 0 94 29" fill="none" xmlns="http://www.w3.org/2000/svg">
<path d="M0 10.73C0 6.10249 0 3.78874 1.24622 2.20925C1.5288 1.8511 1.85267 1.5275 2.21113 1.24516C3.79194 0 6.10766 0 10.7391 0H18.2855C22.9169 0 25.2326 0 26.8134 1.24516C27.1719 1.5275 27.4958 1.8511 27.7783 2.20925C29.0246 3.78874 29.0246 6.10249 29.0246 10.73V18.27C29.0246 22.8975 29.0246 25.2113 27.7783 26.7907C27.4958 27.1489 27.1719 27.4725 26.8134 27.7548C25.2326 29 22.9169 29 18.2855 29H10.7391C6.10766 29 3.79194 29 2.21113 27.7548C1.85267 27.4725 1.5288 27.1489 1.24622 26.7907C0 25.2113 0 22.8975 0 18.27V10.73Z" fill="url(#paint0_linear)"/>
<path fill-rule="evenodd" clip-rule="evenodd" d="M14.8259 6.92644C15.7309 6.06958 16.9213 5.60205 18.3051 5.60205C19.4282 5.60205 20.4344 5.9077 21.268 6.49846C22.0933 7.08331 22.6704 7.89097 23.042 8.77806C23.7723 10.5213 23.7644 12.6823 23.2474 14.7024C22.8084 16.418 21.9478 18.1997 20.6775 19.6757C21.6159 19.9417 22.6682 19.8016 23.8441 18.9172L25.6292 21.2869C23.4236 22.9456 21.0781 23.1307 19.0046 22.2173C18.7219 22.0928 18.4476 21.9495 18.182 21.7895C16.8432 22.5836 15.2607 23.068 13.4402 23.068C9.35546 23.068 6.55249 20.6243 5.28385 17.3406C4.04002 14.1213 4.23536 10.0778 5.90886 6.46249L8.60308 7.70752C7.22571 10.6831 7.13245 13.8897 8.05309 16.2725C8.94892 18.5912 10.7635 20.1021 13.4402 20.1021C14.2868 20.1021 15.0721 19.943 15.7889 19.6575C15.269 19.0149 14.8148 18.3084 14.4321 17.5731C13.1692 15.1465 12.6841 12.3445 13.1774 10.0395C13.4265 8.87551 13.9441 7.76135 14.8259 6.92644ZM18.2361 17.9601C19.2615 16.8666 19.991 15.4548 20.3715 13.9677C20.7822 12.3627 20.7124 10.8987 20.3038 9.9232C20.1059 9.45091 19.8444 9.12577 19.5507 8.91765C19.2653 8.71544 18.8723 8.56796 18.3051 8.56796C17.6275 8.56796 17.1836 8.78012 16.8677 9.07924C16.5286 9.40032 16.2388 9.91844 16.0802 10.6597C15.758 12.165 16.0562 14.2649 17.0658 16.2048C17.4121 16.8704 17.8087 17.4605 18.2361 17.9601Z" fill="white"/>
<defs>
<linearGradient id="paint0_linear" x1="14.5123" y1="0" x2="14.5123" y2="29" gradientUnits="userSpaceOnUse">
<stop stop-color="#FE5714"/>
<stop offset="1" stop-color="#E6361D"/>
</linearGradient>
</defs>
</svg>
